PathFileType	4	(X/Y/Z)	C:/Users/beibeiliu/ov580/test_trc\sequence.19_training_dense_left.trc
DataRate	CameraRate	NumFrames	NumMarkers	Units	OrigDataRate	OrigDataStartFrame	OrigNumFrames
120	120	13	19	mm	120	44	344
Frame#	Time	ThumbCMC			ThumbMCP			ThumbIP			ThumbTip			IndexMCP			IndexPIP			IndexTip			MiddleMCP			MiddlePIP			MiddleTip			RingMCP			RingPIP			RingTip			PinkyMCP			PinkyPIP			PinkyTip			BackHand1			BackHand2			BackHand3	
		X0	Y0	Z0	X1	Y1	Z1	X2	Y2	Z2	X3	Y3	Z3	X4	Y4	Z4	X5	Y5	Z5	X6	Y6	Z6	X7	Y7	Z7	X8	Y8	Z8	X9	Y9	Z9	X10	Y10	Z10	X11	Y11	Z11	X12	Y12	Z12	X13	Y13	Z13	X14	Y14	Z14	X15	Y15	Z15	X16	Y16	Z16	X17	Y17	Z17	X18	Y18	Z18	
43	0.358333	-200.711	17.9848	24.7672	-187.959	17.6985	0.230869	-188.258	20.1315	-22.8423	-204.802	19.8943	-46.5185	-204.493	37.7704	-42.2733	-199.211	15.4684	-57.1788	-205.561	-5.38686	-35.3777	-223.929	28.7594	-44.4979	-219.203	-2.77437	-45.1712	-221.663	0.0701135	-14.761	-238.217	18.1535	-41.751	-233.84	-4.70413	-33.3927	-234.16	3.78904	-3.92174	-251.606	14.9463	-34.2944	-244.563	-4.59537	-23.3749	-238.35	3.91155	-0.640446	-243.838	45.0567	2.7333	-250.728	37.4551	30.8015	-219.761	40.7641	22.6413	
44	0.366667	-204.828	18.1741	23.9006	-185.634	15.8151	-1.90949	-183.125	22.1002	-28.7869	-193.42	22.884	-47.6623	-203.879	38.0583	-41.5988	-204.162	15.0706	-57.3077	-207.615	-1.82322	-29.5429	-222.206	30.5014	-44.1208	-223.225	0.868956	-48.1266	-220.725	1.13995	-14.1218	-240.929	18.8755	-42.8384	-235.296	-3.44946	-34.5055	-234.59	4.9672	-4.80534	-255.261	20.1189	-32.7896	-245.648	-3.42497	-22.3267	-237.298	9.69954	-0.440541	-245.194	45.1874	3.91426	-244.855	38.9603	30.0338	-217.956	44.4866	18.6526	
45	0.375	-201.74	18.9346	19.3213	-187.475	15.9976	-6.9238	-186.118	18.1045	-27.335	-185.608	19.3471	-47.6167	-203.376	36.6277	-44.9142	-204.165	10.4219	-54.8868	-207.152	0.0396064	-27.3774	-222.68	28.1827	-48.1892	-226.435	-1.02518	-44.4546	-222.819	1.59369	-14.629	-237.873	23.2098	-42.8803	-235.25	-1.30967	-35.442	-233.656	8.04204	-4.95211	-255.281	17.8443	-35.7905	-248.704	-1.83308	-24.3346	-239.058	6.57806	-2.62004	-247.63	47.422	2.80128	-243.755	42.1245	31.2438	-218.341	44.0976	18.3411	
46	0.383333	-198.863	20.3389	16.2562	-185.436	12.7517	-7.22463	-184.629	16.3245	-29.4338	-188.685	19.1921	-52.374	-201.872	35.1446	-45.8207	-207.047	9.72977	-56.9902	-213.173	0.198782	-27.4076	-220.595	28.6477	-49.8091	-224.658	-2.21882	-45.1884	-224.467	2.20069	-15.4047	-243.742	24.922	-43.5239	-235.82	-1.06081	-35.4623	-236.271	5.51595	-7.02373	-255.603	19.943	-36.9389	-248.33	1.50341	-28.6458	-241.121	8.73953	-4.93696	-240.813	50.4552	-0.0273801	-243.27	43.4854	29.171	-214.977	44.5508	15.8788	
47	0.391667	-198.226	17.9662	16.1449	-190.576	12.9718	-8.92469	-182.11	14.5555	-33.8808	-183.023	14.1433	-53.2867	-201.561	31.5272	-49.7851	-205.807	7.78762	-56.2857	-210.694	-2.66275	-26.2569	-222.144	30.7596	-48.6336	-229.121	-0.199796	-47.8226	-223.887	1.79585	-15.3702	-241.911	22.9037	-45.6567	-237.336	0.541628	-35.7693	-235.528	7.147	-6.6141	-254.225	25.5092	-35.6074	-249.719	3.18427	-25.7715	-240.618	13.0328	-3.24573	-240.615	50.1641	1.14871	-238.181	48.0369	25.5479	-212.672	46.5249	14.8292	
48	0.4	-199.605	18.3786	17.2588	-190.596	12.0214	-9.28089	-181.955	13.0665	-34.4965	-186.854	15.614	-54.9169	-201.77	31.3076	-50.1163	-210.646	5.16077	-56.3967	-214.3	-3.56786	-27.1996	-224.375	30.0336	-49.9098	-226.367	-1.44313	-47.3775	-221.843	2.58748	-15.396	-238.923	26.7358	-43.8039	-241.884	-0.11682	-33.8778	-231.419	10.7174	-7.88515	-256.8	23.4057	-37.4934	-248.223	3.77147	-24.7113	-240.166	11.4794	-5.28804	-240.567	53.5959	-0.391813	-238.827	49.4336	22.586	-215.77	48.0314	13.747	
49	0.408333	-195.698	18.1072	12.0134	-190.39	11.4664	-10.5625	-184.896	11.7124	-34.36	-183.742	11.8746	-56.5286	-202.443	28.0353	-53.2659	-210.612	1.80671	-55.1172	-213.463	-4.83213	-28.1099	-222.57	28.4516	-52.9489	-230.121	0.194542	-48.5773	-227.751	4.86851	-14.4239	-241.218	26.706	-47.0729	-239.848	1.13582	-34.6344	-235.747	9.04304	-8.28811	-252.766	31.7751	-36.5119	-248.381	7.26372	-29.5217	-241.166	12.6698	-2.93952	-235.77	56.6822	-4.85368	-233.979	49.7269	22.5663	-211.028	47.9455	10.2678	
50	0.416667	-197.87	15.2696	15.0664	-188.907	8.37442	-12.7575	-185.699	7.52086	-34.6578	-181.291	5.18192	-56.4038	-198.521	26.6573	-50.2944	-214.132	0.981362	-57.3075	-214.856	-7.94933	-30.1433	-222.157	27.0416	-53.1124	-231.29	-1.28733	-49.1907	-229.834	1.62717	-17.8749	-238.557	27.891	-47.3976	-242.806	1.13398	-34.2568	-234.582	12.1677	-8.35793	-253.794	27.7945	-39.4323	-253.279	6.78317	-29.7757	-239.858	11.5567	-7.6135	-233.486	56.0642	-4.75667	-234.237	53.8145	20.2083	-209.25	48.0344	8.22144	
51	0.425	-198.082	13.1065	13.2878	-187.912	1.94834	-12.7226	-187.52	3.05213	-36.1226	-184.019	1.27801	-60.656	-200.884	22.6396	-54.4337	-213.189	-2.37051	-58.0014	-218.429	-7.6686	-27.8398	-221.225	24.1208	-54.5016	-229.32	-3.58215	-52.4748	-228.678	3.11285	-15.2816	-236.439	24.1801	-49.3083	-239.932	-0.0478398	-35.7144	-237.326	9.83798	-10.9777	-255.729	30.2295	-40.8855	-251.064	6.19635	-28.781	-238.842	15.4248	-10.1846	-230.289	54.4487	-9.4041	-234.576	53.1621	18.0091	-205.316	46.3165	5.11618	
52	0.433333	-200.646	15.165	8.66668	-192.076	1.28166	-12.3917	-185.752	-0.739837	-42.596	-187.107	-4.19831	-60.8942	-203.368	19.6213	-55.9325	-216.526	-5.39377	-59.363	-221.251	-8.51482	-28.8605	-224.909	17.8756	-59.0189	-231.973	-7.61607	-51.683	-226.501	-1.96958	-18.5554	-241.732	23.5196	-49.613	-242.003	-1.56481	-36.5499	-236.569	10.535	-11.0078	-255.603	26.8081	-42.6524	-251.811	5.34989	-28.8561	-241.078	16.3137	-6.1132	-229.709	52.0827	-14.2344	-233.593	54.7982	16.8858	-204.546	44.6414	-0.224772	
53	0.441667	-200.115	10.0308	9.69691	-190.956	-2.70332	-17.8743	-187.645	-7.61575	-42.15	-190.235	-10.5895	-59.288	-202.849	13.6759	-57.0371	-218.261	-11.59	-58.1805	-222.201	-14.1582	-30.5899	-221.515	11.791	-59.4498	-235.78	-11.6674	-47.9333	-230.799	-2.04942	-17.9857	-237.38	16.9356	-52.2352	-245.45	-2.43101	-37.3725	-235.999	5.81948	-13.2589	-251.866	25.5691	-45.339	-251.328	4.10656	-31.5379	-240.594	12.9542	-10.2328	-229.784	53.8775	-13.7065	-229.239	53.574	11.8046	-202.102	40.8774	-2.87726	
54	0.45	-200.02	6.89635	4.44003	-195.505	-7.39192	-16.0507	-191.16	-13.3643	-41.048	-193.463	-16.7165	-59.3155	-204.855	7.03204	-58.7661	-224.186	-17.0685	-56.4351	-226.912	-15.6614	-29.7209	-226.372	12.102	-60.0155	-239.3	-12.7929	-46.9838	-232.202	-3.74021	-17.5216	-242.116	18.2236	-52.4549	-250.535	-2.59724	-34.5146	-237.923	6.7891	-13.8985	-253.416	22.9114	-46.5441	-254.767	4.89956	-31.3812	-241.207	15.0359	-12.6944	-225.803	51.4464	-18.3533	-228.828	51.3494	10.3244	-202.301	35.0531	-3.5453	
55	0.458333	-204.84	3.32941	5.07747	-197.934	-13.6413	-18.5598	-197.556	-16.9352	-40.2592	-194.817	-25.7124	-61.2432	-206.433	3.28156	-58.0428	-227.767	-17.6664	-57.5899	-231.431	-15.8831	-28.7058	-224.961	7.40445	-60.0943	-242.883	-15.2251	-47.8792	-239.376	-4.72969	-19.3256	-238.095	16.8613	-53.4547	-252.013	-3.3618	-33.5696	-239.882	6.86342	-13.6452	-253.669	25.4797	-47.8986	-256.406	6.02141	-34.0944	-243.007	18.2085	-10.5175	-220.741	45.7663	-18.791	-221.086	47.8795	7.02303	-200.606	32.7212	-1.73673	
